<svg xmlns="http://www.w3.org/2000/svg" width="48" height="48" viewBox="0 0 24 24" fill="none">
  <path d="M9.94 15.5A2 2 0 0 0 8.5 14.06L2.36 12.48a.5.5 0 0 1 0-.96L8.5 9.94A2 2 0 0 0 9.94 8.5l1.58-6.14a.5.5 0 0 1 .96 0l1.58 6.14a2 2 0 0 0 1.44 1.44l6.14 1.58a.5.5 0 0 1 0 .96l-6.14 1.58a2 2 0 0 0-1.44 1.44l-1.58 6.14a.5.5 0 0 1-.96 0L9.94 15.5Z" stroke="#f2d0a8" stroke-width="1.8" stroke-linecap="round" stroke-linejoin="round"/>
  <path d="M20 3v4" stroke="#f2d0a8" stroke-width="1.8" stroke-linecap="round" stroke-linejoin="round"/>
  <path d="M22 5h-4" stroke="#f2d0a8" stroke-width="1.8" stroke-linecap="round" stroke-linejoin="round"/>
  <path d="M4 17v2" stroke="#f2d0a8" stroke-width="1.8" stroke-linecap="round" stroke-linejoin="round"/>
  <path d="M5 18H3" stroke="#f2d0a8" stroke-width="1.8" stroke-linecap="round" stroke-linejoin="round"/>
</svg>
